<svg xmlns="http://www.w3.org/2000/svg" viewBox="0 0 816.378 510.236"><path d="M180.182 199.347c-3.002-3.416-8.065-6.598-15.451-6.067-9.186.66-17.332 7.247-22.938 18.548-4.695 9.464-7.151 21.477-6.74 32.958.516 14.345 5.062 25.912 12.773 33.816l17.108 18.126c7.472 8.18 18.14 12.73 31.169 12.73 13.992 0 26.647-6.757 34.72-18.538 1.972-2.876 3.845-6.295 5.44-10.326l7.33 8.063 8.814-1.077-16.962 45.77a358.047 358.047 0 01-4.84 12.35l-7.076-7.846-11.175-5.601c-12.965-6.501-26.62-4.163-38.45 6.583-18.984 17.244-28.215 51.579-19.755 73.477 1.813 4.692 4.35 8.669 7.506 11.912l17.109 18.128c6.418 7.14 15.674 10.967 27.036 10.967 29.628 0 50.146-27.91 66-62.074l9.727 10.5 8.168-1.236c-1.246 5.058-1.92 10.224-1.92 15.225 0 8.821 2.194 16.429 6.342 22l19.464 20.865c3.808 4.24 10.233 8.536 20.632 8.536 27.28 0 52.595-27.841 77.323-85.07l105.78-16.013c8.104-1.09 11.508-5.062 12.937-8.209.343-.755.586-1.508.765-2.252l10.088 10.707c3.85 3.845 10.584 8.222 21.287 8.222a42.232 42.232 0 002.768-.095c9.622-.648 17.733-5.07 23.455-12.786 6.28-8.468 9.737-20.73 10.275-36.446.418-12.25-1.015-26.188-4.037-39.249-.302-1.31-.582-2.627-.836-3.944 3.079 1.772 7.594 3.024 13 2.259 18.528-2.628 30.358-29.218 28.556-51.236-.72-8.81-3.987-16.165-9.114-21.364l-5.301-5.624c14.367-9.627 24.789-25.66 27.265-40.265 1.33-7.846-1.247-12.848-3.644-15.663l-18.217-19.303c-4.056-4.548-9.723-5.838-12.88-6.2l-2.368-2.508c4.05-8.084 9.185-18.763 12.038-26.378l1.326-3.533-2.048-3.17a31.695 31.695 0 00-4.07-5.094l-17.11-18.129c-5.733-6.33-13.084-8.912-20.767-7.101-12.907 3.041-24.503 18.791-26.4 35.855-1.005 9.024.63 16.958 4.865 23.656-.172.363-.34.707-.511 1.066l-5.816-6.158c-4.144-4.616-10.441-6.786-18.01-5.857-10.997 1.354-21.483 8.052-30.462 19.393-.017-.017-.035-.032-.052-.05l-4.16-4.42c9.416-25.404 17.059-46.068 18.547-50.22 2.449-6.83.08-11.476-1.548-13.637l-18.564-19.735c-5.637-6.487-16.351-6.355-19.593-6.142l-4.853.317L436.274 134.9l-3.398-3.597c-5.637-6.487-16.35-6.354-19.591-6.142l-4.809.315-.356.936c-3.44-1.767-7.581-2.467-12.147-1.905-10.47 1.29-19.954 8.23-27.712 17.73l-5.332-5.636c-4.142-4.75-10.513-6.989-18.183-6.047-11.116 1.369-20.815 7.925-28.595 16.894l-5.334-5.638c-2.131-2.474-5.8-4.908-12.008-4.908-6.041 0-12.115 2.567-18.282 7.759.364-3.414.564-6.77.564-10.002 0-12.728-2.755-23.123-8.188-30.897a33.936 33.936 0 00-3.383-4.098l-17.108-18.126c-6.577-7.369-15.918-11.241-27.272-11.241-16.661 0-31.601 8.413-42.067 23.689-16.22 23.674-18.59 58.285-6.184 90.326A227.363 227.363 0 01183 202.33l-2.82-2.982z"/><g><path fill="white" d="M202.039 172.917c-16.375-42.324 8.718-81.688 24.88-81.688 24.22 0 3.193 67.486-14.531 85.21-.22.221 4.623 5.065 11.67 5.065 24.88 0 55.926-103.706 1.082-103.706-38.092 0-61.213 52.266-41.257 103.807 21.018 54.284 14.193 86.21-6.284 86.21s-15.633-41.173-1.542-61.21c0 0-2.663-6.428-10.789-5.844-26.43 1.9-38.55 82.165 12.872 82.165 26.82 0 54.719-30.352 23.899-110.01zM405.983 257.402s-.695 2.236-1.974 6.187c-1.828-5.726-6.497-8.562-13.112-7.748-19.01 2.341-36.217 30.57-40.813 53.405-3.192 6.341-10.615 19.762-17.046 21.486-5.71 1.53-.403-10.122 2.856-18.757 4.937-13.082 11.005-28.685 13.525-35.714 4.183-11.67-14.193-10.468-14.193-10.468l-3.333 8.77c-1.4-6.866-6.307-10.356-13.551-9.464-33.172 4.085-60.876 87.01-25.606 82.515 8.117-1.034 14.78-6.49 19.93-12.86.879 5.88 4.607 9.906 12.947 8.72 10.124-1.44 18.052-9.857 23.594-18.31 1.251 8.831 6.188 14.454 16.084 13.193 5.503-.701 10.334-3.44 14.483-7.113a852.87 852.87 0 01-5.305 13.107c-50.956 6.217-98.723 12.06-104.243 12.786-12.29 1.618-2.816 17.41-2.816 17.41l100.656-15.238c-16.096 36.374-34.557 68.525-49.525 68.525-15.062 0 5.457-41.921 16.765-53.23-2.952-2.952-6.056-4.644-10.244-4.644-27.299 0-46.344 70.645-8.812 70.645 29.426 0 54.27-42.183 72.067-84.361l109.978-16.648c12.291-1.618 6.002-11.063 6.002-11.063s-54.01 6.572-110.2 13.424c12-30.902 19.965-59.167 22.877-67.54l2.165-6.564c4.184-11.67-13.156-10.468-13.156-10.468M301.656 335.08c-18.976 6.02 6.954-55.384 18.455-59.447 6.525-2.304 6.651 12.833 3.23 21.413a52.166 52.166 0 00-.873 2.344c-2.264 5.969-4.39 11.58-5.942 15.687-3.004 6.615-8.976 18.133-14.87 20.003zm89.417-33.926s-8.514 22.02-16.862 24.668c-18.975 6.02 6.954-55.383 18.455-59.446 5.893-2.081 6.566 10.06 4.122 18.753-.394 1.14-.798 2.304-1.213 3.494-.358.94-.661 1.803-.9 2.571a1227.65 1227.65 0 01-3.55 9.968l-.052-.008z"/><path fill="white" d="M287.591 254.498l176.036-21.513c12.291-1.618 2.817-17.409 2.817-17.409s-221.78 26.987-234.071 28.605c-12.291 1.618-2.817 17.409-2.817 17.409l42.402-5.182-29.48 79.549c-12.098 32.646-35.485 80.262-55.301 80.262-23.573 0-6.606-57.138 21.816-77.262-42.624-21.37-77.633 87.83-21.156 87.83 35.342 0 57.382-49.375 72.769-90.83l27.62-74.683c1.099-3.063.635-5.232-.635-6.776zM611.48 131.958s-15.064 42.754-28.955 44.323c-8.037.907 10.095-31.029 15.227-44.863 5.69-15.338-4.844-16.277-16.596-21.007 1.656-3.148 12.64-24.157 17.212-36.356-13.09-20.263-34.223-.329-36.63 21.321-.996 8.951 1.019 16.086 6.097 21.978-8.182 17.613-31.587 64.934-49.19 67.102-5.151.635-6.84-3.004-6.373-8.741 38.115-11.185 51.396-64.458 23.457-61.017-26.116 3.216-46.082 45.476-41.95 68.586-1.787 2.998-4.718 6.053-9.175 5.727-6.723-.493-11.67-13.614-14.449-23.458 7.056-3.953 14.169-9.418 19.28-16.89 18.768-27.436-7.195-25.436-7.195-25.436s-6.216 22.691-27.962 33.55c15.914-42.87 36.831-99.26 39.384-106.383 4.184-11.67-14.192-10.467-14.192-10.467l-49.24 132.87c-.002.003-10.185 22.521-18.644 24.789-5.71 1.53-.403-10.122 2.856-18.758 4.937-13.081 11.005-28.684 13.525-35.714 4.184-11.67-14.192-10.468-14.192-10.468l-3.333 8.771c-1.4-6.867-6.307-10.357-13.552-9.465-16.4 2.02-31.456 23.308-38.235 43.776-7.344 12.905-19.737 31.757-30.077 33.03-5.397.665-6.994-3.437-6.29-9.764 38.052-11.237 51.294-64.433 23.374-60.995-23.805 2.932-42.5 37.894-42.492 61.338-3.309 5.745-7.66 11.548-11.953 12.064-6.91.832 2.438-20.441 10.283-39.198 7.438-17.781 7.779-27.8-2.69-27.8-13.37 0-27.172 19.87-37.86 40.392 3.687-9.822 6.907-18.457 8.292-22.32 4.183-11.67-14.193-10.468-14.193-10.468l-25.109 66.875c-3.212 8.962 6.872 10.331 11.73 10.485 1.467.046 2.463-.017 2.463-.017s32.988-65.57 40.585-66.561-34.75 66.526-1.926 62.354c9.128-1.16 16.46-8.088 21.873-15.646 2.525 7.454 8.374 11.969 18.429 10.752 12.626-1.529 23.503-12.306 31.785-24.047-.044 11.65 4.724 19.754 16.405 18.266 8.118-1.035 14.78-6.49 19.93-12.86.879 5.88 4.607 9.906 12.947 8.72 6.725-.957 12.481-4.995 17.214-10.074 1.717 6.596 14.618 5.757 14.618 5.757s4.878-13.13 11.8-31.77c1.454-.35 3.34-.849 5.534-1.53 8.466 26.827 17.275 29.435 28.949 27.997 6.517-.802 11.694-4.848 14.896-8.746 3.176 4.498 8.374 6.907 15.988 5.985 26.28-3.18 51.266-50.684 62.116-74.171a56.806 56.806 0 005.714 3.314c-2.78 6.309-7.905 17.406-12.33 26.934-9.704 20.899-5.48 35.63 10.787 34.091 22.019-2.084 40.467-24.035 43.619-42.629 2.312-13.636-11.587-13.528-11.587-13.528zM348.815 148.78c8.045-.942-.512 31.118-24.498 41.132 5.355-17.362 19.068-40.496 24.498-41.132zm31.388 53.154c-18.975 6.02 6.954-55.384 18.455-59.446 6.525-2.305 6.651 12.832 3.23 21.412a52.275 52.275 0 00-.872 2.342c-2.264 5.969-4.39 11.582-5.942 15.689-3.005 6.615-8.977 18.133-14.87 20.003zm158.678-76.455c8.071-.945-.565 31.33-24.731 41.233 5.177-17.15 19.22-40.588 24.731-41.233z"/><path fill="white" d="M552.004 227.023c-3.074 15.79-.967 33.765 1.966 46.764 5.72 25.347 4.751 59.254-8.473 61.13-13.224 1.876-6.39-33.883 2.237-53.348 0 0-2.769-6.584-10.881-3.627-5.394 1.966-10.354 9.882-13.385 19.727-4.811 5.283-11.092 10.25-18.076 10.9-8.054.75 10.095-31.029 15.227-44.863 5.723-15.427-4.966-16.287-16.8-21.09.302-.626 8.555-17.772 13.416-30.74-13.431-13.734-30.223-4.329-32.631 17.322-1.016 9.131 1.095 15.813 6.402 21.243-8.928 18.51-32.299 63.719-49.495 65.837-5.15.634-6.84-3.004-6.372-8.742 38.115-11.185 51.396-64.458 23.456-61.017-39.084 4.813-63.78 88.237-22.568 83.25 26.17-3.168 51.06-50.294 61.981-73.882 1.824 1.12 3.834 2.194 6.027 3.236-2.642 6.309-7.655 17.695-12.508 27.189-12.718 24.88-5.12 36.535 9.85 35.118 7.533-.712 13.841-3.644 19.178-7.967-1.192 18.058 5.163 35.86 26.14 34.448 30.206-2.035 29.946-48.804 22.89-79.308-3.602-15.568-3.89-30.722-1.468-42.598 5.174-25.374 25.942-30.468 26.099-11.45.105 12.719-6.37 32.03-15.654 41.013 0 0 3.115 3.131 9.439 2.234 13.935-1.977 23.626-24.984 22.136-43.199-2.843-34.76-50-29.366-58.133 12.42zM461.748 257.3c8.072-.945-.565 31.33-24.73 41.233 5.176-17.149 19.22-40.588 24.73-41.233z"/></g></svg>